<svg width="427" height="317" viewBox="0 0 427 317" fill="none" xmlns="http://www.w3.org/2000/svg">
<path fill-rule="evenodd" clip-rule="evenodd" d="M265.004 316.576H6.78445C0.967682 316.576 -1.73786 309.363 2.64401 305.538L34.314 277.889C45.2699 268.325 51.5565 254.491 51.5565 239.948V50.366C51.5565 22.5496 74.1061 0 101.922 0H265.004C287.154 0 305.965 14.2987 312.709 34.1693H234.806C202.848 34.1693 176.94 60.0768 176.94 92.0353V159.076C176.94 191.035 202.848 216.942 234.806 216.942H315.37V266.21C315.37 294.026 292.82 316.576 265.004 316.576ZM99.5468 228.02C99.5468 224.045 102.77 220.822 106.746 220.822H138.625C142.6 220.822 145.823 224.045 145.823 228.02C145.823 231.996 142.6 235.219 138.625 235.219H106.746C102.77 235.219 99.5468 231.996 99.5468 228.02Z" fill="black"/>
<path fill-rule="evenodd" clip-rule="evenodd" d="M373.414 92.0355C373.414 68.3612 354.222 49.1694 330.548 49.1694H234.806C211.132 49.1694 191.94 68.3612 191.94 92.0354V159.076C191.94 182.751 211.132 201.942 234.806 201.942H400.474C383.64 191.356 373.414 172.859 373.414 152.958V92.0355ZM244.129 100.198C240.153 100.198 236.93 103.421 236.93 107.397C236.93 111.373 240.153 114.596 244.129 114.596H321.946C325.922 114.596 329.145 111.373 329.145 107.397C329.145 103.421 325.922 100.198 321.946 100.198H244.129ZM236.93 143.715C236.93 139.739 240.153 136.516 244.129 136.516H276.008C279.984 136.516 283.207 139.739 283.207 143.715C283.207 147.691 279.984 150.913 276.008 150.913H244.129C240.153 150.913 236.93 147.691 236.93 143.715Z" fill="black"/>
</svg>
