<?xml version="1.0" encoding="utf-8"?>
<!-- Generator: Adobe Illustrator 24.2.1, SVG Export Plug-In . SVG Version: 6.00 Build 0)  -->
<svg version="1.1" id="Layer_1" xmlns="http://www.w3.org/2000/svg" xmlns:xlink="http://www.w3.org/1999/xlink" x="0px" y="0px"
	 viewBox="0 0 42.7 43" style="enable-background:new 0 0 42.7 43;" xml:space="preserve">
<style type="text/css">
	.st0{fill:#B7B7B7;}
	.st1{fill:#FFFFFF;}
</style>
<circle class="st0" cx="21.5" cy="21.5" r="19.5"/>
<g id="Page-1">
	<g id="_x30_03---Call" transform="translate(-1)">
		<path id="Shape" class="st1" d="M20.7,23.3c-1.5-1.5-1.9-3.1-1.9-3.7c0-0.2,0-0.3,0.2-0.5l1.2-1.2c0.2-0.2,0.2-0.5,0.1-0.7l-2-3.1
			c-0.2-0.2-0.5-0.3-0.7-0.2l-3.2,1.5c-0.2,0.1-0.3,0.3-0.3,0.5c0.2,1.6,0.9,5.4,4.6,9.2c3.8,3.8,7.7,4.5,9.2,4.6
			c0.2,0,0.4-0.1,0.5-0.3l1.5-3.2c0.1-0.3,0-0.6-0.2-0.7l-3.1-2c-0.2-0.1-0.5-0.1-0.7,0.1l-1.2,1.2c-0.1,0.1-0.3,0.2-0.5,0.2
			C23.8,25.1,22.3,24.8,20.7,23.3L20.7,23.3z"/>
		<path id="Shape_1_" class="st1" d="M26.8,22.5c-0.3,0-0.6-0.2-0.6-0.6c0-2.3-1.9-4.1-4.1-4.1c-0.3,0-0.6-0.2-0.6-0.6
			c0-0.3,0.2-0.6,0.6-0.6c2.9,0,5.2,2.3,5.2,5.2C27.3,22.2,27.1,22.5,26.8,22.5z"/>
		<path id="Shape_2_" class="st1" d="M29.4,22.5c-0.3,0-0.6-0.2-0.6-0.6c0-3.8-3.1-6.9-6.9-6.9c-0.3,0-0.6-0.2-0.6-0.6
			s0.2-0.6,0.6-0.6c4.4,0,8,3.6,8,8c0,0.1-0.1,0.3-0.2,0.4C29.6,22.3,29.6,22.5,29.4,22.5z"/>
	</g>
</g>
</svg>
