<?xml version="1.0" encoding="utf-8"?>
<!-- Generator: Adobe Illustrator 24.2.1, SVG Export Plug-In . SVG Version: 6.00 Build 0)  -->
<svg version="1.1" id="Layer_1" xmlns="http://www.w3.org/2000/svg" xmlns:xlink="http://www.w3.org/1999/xlink" x="0px" y="0px"
	 viewBox="0 0 50 50" style="enable-background:new 0 0 50 50;" xml:space="preserve">
<style type="text/css">
	.st0{fill:#FF4246;}
	.st1{fill:#FFFFFF;}
</style>
<g>
	<circle class="st0" cx="25" cy="25" r="24"/>
</g>
<g id="Page-1">
	<g id="_x30_03---Call" transform="translate(-1)">
		<path id="Shape" class="st1" d="M25.4,23.7c2.1,0,3.5,0.8,4,1.3c0.1,0.1,0.2,0.2,0.2,0.5v1.7c0,0.3,0.2,0.5,0.4,0.6l3.6,0.8
			c0.3,0,0.6-0.1,0.6-0.4l1.2-3.3c0.1-0.2,0-0.4-0.1-0.6c-1.3-1-4.5-3.2-9.8-3.3c-5.4,0-8.6,2.3-9.8,3.3c-0.1,0.1-0.2,0.4-0.1,0.6
			l1.2,3.3c0.1,0.3,0.4,0.4,0.6,0.4l3.6-0.8c0.2-0.1,0.4-0.3,0.4-0.6v-1.7c0-0.1,0.1-0.4,0.2-0.5C22,24.6,23.2,23.7,25.4,23.7
			L25.4,23.7z"/>
	</g>
</g>
</svg>
