<?xml version="1.0" encoding="utf-8"?>
<!-- Generator: Adobe Illustrator 24.2.1, SVG Export Plug-In . SVG Version: 6.00 Build 0)  -->
<svg version="1.1" id="Layer_1" xmlns="http://www.w3.org/2000/svg" xmlns:xlink="http://www.w3.org/1999/xlink" x="0px" y="0px"
	 viewBox="0 0 42.7 43" style="enable-background:new 0 0 42.7 43;" xml:space="preserve">
<style type="text/css">
	.st0{fill:#B7B7B7;}
	.st1{fill:#FFFFFF;}
</style>
<circle class="st0" cx="21.5" cy="21.5" r="19.5"/>
<g>
	<g>
		<g>
			<path class="st1" d="M22.4,16.2h-8.5c-1.2,0-2,0.9-2,2v6.9c0,1.2,0.9,2,2,2h8.5c1.2,0,2-0.9,2-2v-6.9
				C24.5,17.1,23.5,16.2,22.4,16.2z"/>
		</g>
	</g>
	<g>
		<g>
			<path class="st1" d="M29,17.4c-0.1,0-0.3,0.1-0.4,0.2l-3.2,1.9v4.7l3.2,1.9c0.6,0.4,1.3,0.2,1.7-0.4c0.1-0.2,0.2-0.4,0.2-0.6
				v-6.3C30.5,17.8,29.8,17.2,29,17.4z"/>
		</g>
	</g>
</g>
</svg>
