<?xml version="1.0" encoding="utf-8"?>
<!-- Generator: Adobe Illustrator 24.2.1, SVG Export Plug-In . SVG Version: 6.00 Build 0)  -->
<svg version="1.1" id="Layer_1" xmlns="http://www.w3.org/2000/svg" xmlns:xlink="http://www.w3.org/1999/xlink" x="0px" y="0px"
	 viewBox="0 0 71 43" style="enable-background:new 0 0 71 43;" xml:space="preserve">
<style type="text/css">
	.st0{fill:#FF4246;}
	.st1{fill:#FFFFFF;}
</style>
<g>
	<path class="st0" d="M49.5,41h-29C9.7,41,1,32.3,1,21.5l0,0C1,10.7,9.7,2,20.5,2h29C60.3,2,69,10.7,69,21.5l0,0
		C69,32.3,60.3,41,49.5,41z"/>
</g>
<path class="st1" d="M37.1,21.8l4.6-4.6c0.5-0.5,0.5-1.3,0-1.8l-0.6-0.6c-0.5-0.5-1.3-0.5-1.8,0l-4.6,4.6L30,14.7
	c-0.5-0.5-1.3-0.5-1.8,0l-0.6,0.6c-0.5,0.5-0.5,1.3,0,1.8l4.6,4.6l-4.6,4.6c-0.5,0.5-0.5,1.3,0,1.8l0.6,0.6c0.5,0.5,1.3,0.5,1.8,0
	l4.6-4.6l4.6,4.6c0.5,0.5,1.3,0.5,1.8,0l0.6-0.6c0.5-0.5,0.5-1.3,0-1.8L37.1,21.8z"/>
</svg>
