<?xml version="1.0" encoding="utf-8"?>
<!-- Generator: Adobe Illustrator 24.2.1, SVG Export Plug-In . SVG Version: 6.00 Build 0)  -->
<svg version="1.1" id="Layer_1" xmlns="http://www.w3.org/2000/svg" xmlns:xlink="http://www.w3.org/1999/xlink" x="0px" y="0px"
	 viewBox="0 0 71 43" style="enable-background:new 0 0 71 43;" xml:space="preserve">
<style type="text/css">
	.st0{fill:#FF8557;}
	.st1{fill:#FFFFFF;}
</style>
<g>
	<path class="st0" d="M49.6,40.6h-29c-10.8,0-19.5-8.7-19.5-19.5v0c0-10.8,8.7-19.5,19.5-19.5h29c10.8,0,19.5,8.7,19.5,19.5v0
		C69.1,31.9,60.3,40.6,49.6,40.6z"/>
</g>
<path class="st1" d="M41.5,12.9H28.6c-1.3,0-2.4,1.1-2.4,2.4v7.9c0,1.3,1.1,2.4,2.4,2.4v3.6l5.1-3.6h7.8c1.3,0,2.4-1.1,2.4-2.4v-7.9
	C43.9,14,42.9,12.9,41.5,12.9z M39.2,22.1h-8.3v-1h8.3V22.1z M39.2,19.9h-8.3v-1h8.3V19.9z M39.2,17.7h-8.3v-1h8.3V17.7z"/>
</svg>
