<?xml version="1.0" encoding="utf-8"?>
<!-- Generator: Adobe Illustrator 24.2.1, SVG Export Plug-In . SVG Version: 6.00 Build 0)  -->
<svg version="1.1" id="Layer_1" xmlns="http://www.w3.org/2000/svg" xmlns:xlink="http://www.w3.org/1999/xlink" x="0px" y="0px"
	 viewBox="0 0 71 43" style="enable-background:new 0 0 71 43;" xml:space="preserve">
<style type="text/css">
	.st0{fill:#54DAB1;}
	.st1{fill:#FFFFFF;}
</style>
<g>
	<path class="st0" d="M49.5,41h-29C9.7,41,1,32.3,1,21.5v0C1,10.7,9.7,2,20.5,2h29C60.3,2,69,10.7,69,21.5v0
		C69,32.3,60.3,41,49.5,41z"/>
</g>
<g id="Page-1">
	<g id="_x30_03---Call" transform="translate(-1)">
		<path id="Shape" class="st1" d="M34.6,22.9c-1.5-1.5-1.9-3.1-1.9-3.7c0-0.2,0-0.3,0.2-0.5l1.2-1.2c0.2-0.2,0.2-0.5,0.1-0.7l-2-3.1
			c-0.2-0.2-0.5-0.3-0.7-0.2l-3.2,1.5c-0.2,0.1-0.3,0.3-0.3,0.5c0.2,1.6,0.9,5.4,4.6,9.2c3.8,3.8,7.7,4.5,9.2,4.6
			c0.2,0,0.4-0.1,0.5-0.3l1.5-3.2c0.1-0.3,0-0.6-0.2-0.7l-3.1-2c-0.2-0.1-0.5-0.1-0.7,0.1l-1.2,1.2c-0.1,0.1-0.3,0.2-0.5,0.2
			C37.7,24.7,36.2,24.4,34.6,22.9L34.6,22.9z"/>
		<path id="Shape_1_" class="st1" d="M40.7,22.1c-0.3,0-0.6-0.2-0.6-0.6c0-2.3-1.9-4.1-4.1-4.1c-0.3,0-0.6-0.2-0.6-0.6
			c0-0.3,0.2-0.6,0.6-0.6c2.9,0,5.2,2.3,5.2,5.2C41.2,21.8,41,22.1,40.7,22.1z"/>
		<path id="Shape_2_" class="st1" d="M43.4,22.1c-0.3,0-0.6-0.2-0.6-0.6c0-3.8-3.1-6.9-6.9-6.9c-0.3,0-0.6-0.2-0.6-0.6
			s0.2-0.6,0.6-0.6c4.4,0,8,3.6,8,8c0,0.1-0.1,0.3-0.2,0.4S43.6,22.1,43.4,22.1z"/>
	</g>
</g>
</svg>
