<?xml version="1.0" encoding="utf-8"?>
<!-- Generator: Adobe Illustrator 24.2.1, SVG Export Plug-In . SVG Version: 6.00 Build 0)  -->
<svg version="1.1" id="Layer_1" xmlns="http://www.w3.org/2000/svg" xmlns:xlink="http://www.w3.org/1999/xlink" x="0px" y="0px"
	 viewBox="0 0 50 50" style="enable-background:new 0 0 50 50;" xml:space="preserve">
<style type="text/css">
	.st0{fill:#2F2F2F;}
	.st1{fill:#828282;}
	.st2{fill:#FF4246;}
</style>
<g>
	<circle class="st0" cx="25" cy="25" r="24"/>
</g>
<g>
	<circle class="st0" cx="-59" cy="60" r="24"/>
</g>
<g>
	<circle class="st1" cx="-18" cy="93" r="24"/>
</g>
<g>
	<g>
		<g>
			<path class="st1" d="M32.3,17h-15c-0.9,0-1.7,0.7-1.7,1.7v10c0,0.9,0.7,1.7,1.7,1.7h5.8l-1.7,2.5v0.8h6.6v-0.8l-1.7-2.5h5.8
				c0.9,0,1.7-0.7,1.7-1.7v-10C34,17.7,33.3,17,32.3,17z M32.3,27h-15v-8.3h15V27z"/>
		</g>
	</g>
</g>
<g>
	<circle class="st2" cx="-60" cy="-10" r="24"/>
</g>
<rect x="25.5" y="13" transform="matrix(0.7071 0.7071 -0.7071 0.7071 25.4393 -11.416)" class="st2" width="2" height="24"/>
</svg>
