<?xml version="1.0" encoding="utf-8"?>
<!-- Generator: Adobe Illustrator 24.2.1, SVG Export Plug-In . SVG Version: 6.00 Build 0)  -->
<svg version="1.1" id="Layer_1" xmlns="http://www.w3.org/2000/svg" xmlns:xlink="http://www.w3.org/1999/xlink" x="0px" y="0px"
	 viewBox="0 0 71 43" style="enable-background:new 0 0 71 43;" xml:space="preserve">
<style type="text/css">
	.st0{fill:#54DAB1;}
	.st1{fill:#FFFFFF;}
</style>
<g>
	<path class="st0" d="M49.5,41h-29C9.7,41,1,32.3,1,21.5v0C1,10.7,9.7,2,20.5,2h29C60.3,2,69,10.7,69,21.5v0
		C69,32.3,60.3,41,49.5,41z"/>
</g>
<g>
	<g>
		<g>
			<path class="st1" d="M36.5,14.2h-9.6c-1.3,0-2.3,1-2.3,2.3v7.7c0,1.3,1,2.3,2.3,2.3h9.6c1.3,0,2.3-1,2.3-2.3v-7.7
				C38.8,15.2,37.7,14.2,36.5,14.2z"/>
		</g>
	</g>
	<g>
		<g>
			<path class="st1" d="M43.9,15.5c-0.1,0-0.3,0.1-0.4,0.2l-3.6,2.1v5.3l3.6,2.1c0.7,0.4,1.5,0.2,1.9-0.5c0.1-0.2,0.2-0.4,0.2-0.7
				v-7.1C45.6,16,44.8,15.3,43.9,15.5z"/>
		</g>
	</g>
</g>
</svg>
