<?xml version="1.0" encoding="utf-8"?>
<!-- Generator: Adobe Illustrator 24.2.1, SVG Export Plug-In . SVG Version: 6.00 Build 0)  -->
<svg version="1.1" id="Layer_1" xmlns="http://www.w3.org/2000/svg" xmlns:xlink="http://www.w3.org/1999/xlink" x="0px" y="0px"
	 viewBox="0 0 50 50" style="enable-background:new 0 0 50 50;" xml:space="preserve">
<style type="text/css">
	.st0{fill:#2F2F2F;}
	.st1{fill:#828282;}
</style>
<g>
	<circle class="st0" cx="25" cy="25" r="24"/>
</g>
<g>
	<circle class="st0" cx="-59" cy="60" r="24"/>
</g>
<g>
	<circle class="st1" cx="-18" cy="93" r="24"/>
</g>
<g>
	<g>
		<path d="M124.2,12.4h-29c-1.8,0-3.2,1.4-3.2,3.2V35c0,1.8,1.4,3.2,3.2,3.2h11.3l-3.2,4.8v1.6h12.9V43l-3.2-4.8h11.3
			c1.8,0,3.2-1.4,3.2-3.2V15.6C127.4,13.9,126,12.4,124.2,12.4z M124.2,31.7h-29V15.6h29V31.7z"/>
	</g>
</g>
<g>
	<g>
		<g>
			<g>
				<g>
					<path class="st1" d="M25.7,18.7h-9.6c-1.3,0-2.3,1-2.3,2.3v7.7c0,1.3,1,2.3,2.3,2.3h9.6c1.3,0,2.3-1,2.3-2.3V21
						C28,19.7,26.9,18.7,25.7,18.7z"/>
				</g>
			</g>
		</g>
		<g>
			<g>
				<g>
					<path class="st1" d="M33.1,20c-0.1,0-0.3,0.1-0.4,0.2l-3.6,2.1v5.3l3.6,2.1c0.7,0.4,1.5,0.2,1.9-0.5c0.1-0.2,0.2-0.4,0.2-0.7
						v-7.1C34.8,20.5,34,19.8,33.1,20z"/>
				</g>
			</g>
		</g>
	</g>
</g>
</svg>
