<?xml version="1.0" encoding="utf-8"?>
<!-- Generator: Adobe Illustrator 24.2.1, SVG Export Plug-In . SVG Version: 6.00 Build 0)  -->
<svg version="1.1" id="Layer_1" xmlns="http://www.w3.org/2000/svg" xmlns:xlink="http://www.w3.org/1999/xlink" x="0px" y="0px"
	 viewBox="0 0 50 50" style="enable-background:new 0 0 50 50;" xml:space="preserve">
<style type="text/css">
	.st0{fill:#2F2F2F;}
	.st1{fill:#828282;}
	.st2{fill:#FF4246;}
</style>
<g>
	<circle class="st0" cx="25" cy="25" r="24"/>
</g>
<g>
	<circle class="st0" cx="-59" cy="60" r="24"/>
</g>
<g>
	<circle class="st1" cx="-18" cy="93" r="24"/>
</g>
<g>
	<circle class="st2" cx="-60" cy="-10" r="24"/>
</g>
<rect x="-24.5" y="13" transform="matrix(0.7071 0.7071 -0.7071 0.7071 10.7947 23.9393)" class="st2" width="2" height="24"/>
<g>
	<g>
		<g>
			<path class="st1" d="M31,25c0-0.4-0.3-0.7-0.7-0.7c-0.4,0-0.7,0.3-0.7,0.7c0,2.8-2.3,5.1-5.1,5.1s-5.1-2.3-5.1-5.1
				c0-0.4-0.3-0.7-0.7-0.7c-0.4,0-0.7,0.3-0.7,0.7c0,3.3,2.5,6.1,5.8,6.5v1.9h-2.6c-0.4,0-0.7,0.3-0.7,0.7c0,0.4,0.3,0.7,0.7,0.7
				h6.7c0.4,0,0.7-0.3,0.7-0.7c0-0.4-0.3-0.7-0.7-0.7h-2.6v-1.9C28.5,31.2,31,28.4,31,25z"/>
		</g>
	</g>
</g>
<g>
	<g>
		<g>
			<path class="st1" d="M24.5,14.5c-2.2,0-4,1.8-4,4V25c0,2.2,1.8,4,4,4c2.2,0,4-1.8,4-4v-6.5C28.5,16.3,26.7,14.5,24.5,14.5z"/>
		</g>
	</g>
</g>
</svg>
